# xmcd CD database file
#
# Track frame offsets:
#	150
#	28282
#	55937
#	91685
#	109662
#	131462
#	154862
#
# Disc length: 2346 seconds
#
# Revision: 0
# Processed by: cddbd v1.4PL0 Copyright (c) Steve Scherf et al.
# Submitted via: CDex 1.50
#
DISCID=52092807
DTITLE=Billy Jenkins - Scratches of Spain
DYEAR=1900
DGENRE=Jazz
TTITLE0=Monkey Men
TTITLE1=Cuttlefish
TTITLE2=Barcelona
TTITLE3=Benidrom Motorway Services
TTITLE4=Bilbao/St.Columbus Day
TTITLE5=Cookin Oil
TTITLE6=McDonalds
EXTD=
EXTT0=
EXTT1=
EXTT2=
EXTT3=
EXTT4=
EXTT5=
EXTT6=
PLAYORDER=
